<svg xmlns="http://www.w3.org/2000/svg" fill="none" viewBox="0 0 92 92">
	<circle cx="46" cy="46" r="46" fill="#fff" opacity=".6"/>
	<path fill="currentColor"
				d="M42.383 47.672a4.206 4.206 0 0 0 4.2 4.201 4.206 4.206 0 0 0 4.202-4.2 4.206 4.206 0 0 0-4.201-4.202 4.206 4.206 0 0 0-4.201 4.201Zm6.427 0a2.229 2.229 0 0 1-2.226 2.227 2.229 2.229 0 0 1-2.227-2.227 2.23 2.23 0 0 1 2.227-2.226 2.23 2.23 0 0 1 2.226 2.226Z"/>
	<path fill="currentColor"
				d="M63.163 47.076c-.075-.099-1.872-2.456-4.788-4.839a27.23 27.23 0 0 0-3.054-2.174l1.035-1.443a.987.987 0 0 0-1.605-1.15l-1.172 1.633a19.616 19.616 0 0 0-.433-.208c-1.88-.871-3.75-1.377-5.575-1.512v-2.396a.987.987 0 0 0-1.974 0v2.396c-1.825.135-3.695.641-5.575 1.512-.145.067-.289.137-.433.208l-1.172-1.634a.987.987 0 0 0-1.605 1.151l1.035 1.443a27.24 27.24 0 0 0-3.055 2.174c-2.915 2.383-4.712 4.74-4.787 4.84a.987.987 0 0 0 0 1.191c.075.1 1.872 2.457 4.788 4.839 1.723 1.408 3.482 2.532 5.229 3.342 2.118.982 4.224 1.5 6.266 1.547a10.752 10.752 0 0 0 .592 0c2.041-.046 4.148-.565 6.266-1.547 1.746-.81 3.506-1.934 5.23-3.342 2.915-2.382 4.712-4.74 4.787-4.839a.987.987 0 0 0 0-1.192Zm-8.226.596c0 4.53-3.623 8.228-8.123 8.35-.077.002-.153.004-.23.004-.09 0-.179-.003-.268-.005-4.483-.142-8.086-3.833-8.086-8.349 0-4.529 3.624-8.228 8.124-8.35a8.82 8.82 0 0 1 .498.002c4.483.142 8.085 3.832 8.085 8.348Zm-22.872 0c.873-1.028 2.865-3.207 5.53-5.082a10.265 10.265 0 0 0-1.339 5.082c0 1.848.488 3.583 1.341 5.085a26.273 26.273 0 0 1-1.52-1.15 31.383 31.383 0 0 1-4.012-3.934Zm23.507 5.082a10.264 10.264 0 0 0 1.34-5.082c0-1.847-.488-3.582-1.341-5.084.55.384 1.058.774 1.52 1.15a31.39 31.39 0 0 1 4.012 3.934c-.873 1.029-2.865 3.208-5.53 5.082Z"/>
</svg>
