<?xml version="1.0" standalone="no"?>
<!DOCTYPE svg PUBLIC "-//W3C//DTD SVG 20010904//EN"
 "http://www.w3.org/TR/2001/REC-SVG-20010904/DTD/svg10.dtd">
<svg version="1.0" xmlns="http://www.w3.org/2000/svg"
 width="3384.000000pt" height="3384.000000pt" viewBox="0 0 3384.000000 3384.000000"
 preserveAspectRatio="xMidYMid meet">
<metadata>
Created by potrace 1.14, written by Peter Selinger 2001-2017
</metadata>
<g transform="translate(0.000000,3384.000000) scale(0.100000,-0.100000)"
fill="#000000" stroke="none">
<path d="M14609 21516 c-2 -2 -33 -7 -69 -10 -149 -15 -327 -54 -430 -93 -8
-3 -20 -7 -26 -8 -35 -8 -223 -94 -306 -141 -109 -61 -311 -207 -301 -217 3
-4 1 -7 -6 -7 -19 0 -241 -230 -241 -249 0 -5 -3 -11 -7 -13 -14 -6 -119 -162
-129 -190 -4 -10 -10 -18 -14 -18 -5 0 -14 -15 -20 -34 -6 -19 -18 -40 -26
-46 -7 -7 -14 -21 -14 -31 0 -11 -5 -19 -12 -19 -6 0 -9 -3 -5 -6 3 -4 -4 -25
-15 -48 -12 -22 -22 -43 -23 -46 0 -3 -11 -32 -24 -65 -23 -59 -67 -200 -76
-240 -2 -11 -6 -30 -9 -42 -4 -13 -8 -33 -11 -45 -3 -13 -8 -36 -10 -53 -5
-33 -16 -101 -20 -127 -2 -9 -6 -47 -10 -85 -3 -37 -8 -69 -10 -71 -2 -3 0
-13 6 -23 5 -11 6 -19 1 -19 -8 0 -7 -300 1 -395 10 -109 19 -180 23 -186 2
-4 6 -29 9 -57 3 -28 9 -61 14 -74 5 -13 9 -26 9 -31 2 -36 47 -199 63 -229 5
-10 9 -25 9 -33 0 -8 4 -23 9 -33 5 -9 17 -35 26 -57 35 -82 80 -172 112 -223
18 -29 33 -57 33 -62 0 -6 5 -10 10 -10 6 0 10 -7 10 -15 0 -8 4 -15 8 -15 4
0 15 -12 24 -27 28 -48 69 -95 168 -193 107 -106 145 -140 160 -140 6 0 10 -4
10 -8 0 -19 271 -176 353 -203 20 -7 37 -16 37 -20 0 -5 29 -14 65 -19 2 -1
17 -7 32 -15 14 -8 30 -12 35 -9 4 3 8 0 8 -6 0 -6 5 -8 10 -5 6 4 17 2 24 -4
8 -7 18 -11 22 -10 5 1 12 0 17 -1 4 -1 12 -4 17 -5 6 -1 11 -3 13 -5 1 -1 9
-3 17 -5 8 -1 40 -8 70 -14 30 -6 66 -14 80 -16 14 -3 43 -8 65 -11 22 -3 50
-7 62 -10 80 -16 476 -23 643 -10 155 12 206 16 235 20 17 2 53 7 80 11 28 4
93 16 145 27 114 23 110 23 135 31 11 3 31 8 45 11 34 7 78 21 122 40 21 9 39
16 40 16 17 1 63 20 149 59 l104 47 0 849 0 849 -752 0 -753 1 -7 -30 c-4 -16
-8 -33 -9 -37 -1 -5 -2 -9 -3 -10 -2 -2 -4 -14 -7 -28 -2 -14 -11 -56 -20 -95
-9 -38 -18 -81 -21 -95 -6 -30 -7 -36 -18 -73 -6 -24 -2 -34 28 -65 l36 -37
458 1 c252 0 463 -1 469 -3 7 -3 10 -139 10 -443 l0 -439 -70 -23 c-39 -12
-73 -23 -76 -23 -3 -1 -18 -4 -35 -8 -98 -22 -205 -35 -340 -42 -49 -2 -92 -5
-95 -6 -3 0 -32 0 -65 0 -33 1 -66 2 -72 1 -7 0 -19 0 -25 0 -85 -3 -262 28
-378 66 -67 22 -249 106 -275 126 -5 4 -39 29 -75 55 -204 149 -376 387 -467
646 -33 96 -75 266 -68 277 3 6 2 10 -2 10 -5 0 -9 10 -10 23 -1 12 -4 42 -7
67 -4 25 -8 86 -10 137 -2 50 -7 96 -11 102 -3 6 -3 11 2 11 4 0 8 42 8 93 0
50 1 96 4 102 3 5 6 27 8 50 10 140 66 352 134 505 18 41 36 77 40 80 3 3 9
15 13 27 7 22 105 172 136 208 118 136 234 236 357 307 64 37 177 88 215 97 4
1 23 8 43 17 19 8 35 12 35 9 0 -2 11 0 26 5 14 6 37 12 52 15 15 3 36 7 47 9
121 24 448 25 567 0 13 -2 38 -6 57 -9 85 -11 115 -17 137 -25 13 -5 24 -8 24
-6 0 2 39 -7 88 -21 48 -13 94 -26 102 -27 54 -11 110 -30 110 -38 0 -5 4 -7
9 -4 5 3 25 -1 44 -9 35 -14 35 -14 54 18 10 17 23 43 30 57 40 86 155 327
161 339 5 8 2 33 -7 57 -13 36 -22 46 -58 59 -24 9 -49 18 -56 19 -6 2 -19 6
-27 9 -19 7 -81 26 -106 32 -96 24 -236 56 -264 60 -19 2 -46 7 -60 10 -14 3
-44 6 -67 7 -24 1 -43 5 -43 8 0 3 -28 6 -63 8 -119 5 -595 11 -598 8z"/>
<path d="M21549 21516 c-2 -2 -33 -6 -69 -10 -76 -7 -117 -13 -185 -27 -27 -5
-59 -11 -70 -13 -68 -13 -259 -75 -335 -108 -92 -41 -226 -111 -257 -134 -17
-13 -34 -24 -38 -24 -9 0 -112 -76 -180 -134 -102 -85 -232 -224 -297 -316
-10 -14 -31 -44 -48 -67 -16 -24 -30 -47 -30 -53 0 -5 -4 -10 -10 -10 -5 0
-10 -7 -10 -15 0 -8 -3 -15 -7 -15 -5 0 -21 -29 -38 -65 -16 -36 -33 -65 -37
-65 -5 0 -8 -6 -8 -12 0 -7 -6 -24 -13 -38 -12 -24 -61 -139 -63 -150 0 -3 -3
-12 -7 -20 -12 -31 -39 -116 -43 -137 -2 -12 -9 -35 -15 -50 -6 -16 -10 -29
-9 -31 1 -1 -1 -15 -4 -30 -20 -92 -23 -103 -31 -162 -42 -293 -35 -591 21
-930 8 -47 32 -148 37 -157 7 -11 18 -61 20 -85 1 -10 6 -18 11 -18 5 0 7 -2
4 -5 -9 -9 58 -180 109 -279 25 -50 51 -101 57 -113 6 -13 14 -23 19 -23 4 0
7 -7 7 -15 0 -8 5 -15 10 -15 6 0 10 -5 10 -10 0 -12 68 -106 120 -165 107
-122 278 -265 395 -331 145 -81 289 -143 420 -180 33 -9 67 -19 75 -22 8 -3
22 -6 30 -8 8 -2 31 -6 50 -10 19 -5 40 -8 45 -9 9 -1 38 -7 105 -20 24 -5 52
-8 210 -22 139 -12 425 -6 532 12 12 2 39 6 58 9 52 8 125 23 125 26 0 1 13 3
29 5 16 2 36 7 45 11 9 4 25 9 36 11 11 3 25 6 30 7 6 1 20 8 33 14 12 7 22
10 22 8 0 -6 131 43 145 54 6 4 25 11 42 15 18 3 35 11 38 15 3 5 28 20 55 32
28 13 50 27 50 31 0 5 5 5 10 2 6 -3 10 -1 10 4 0 6 5 11 10 11 10 0 142 83
167 105 6 5 26 21 45 35 69 52 156 135 227 215 80 92 87 100 132 165 24 35 50
71 57 78 6 7 12 18 12 24 0 6 6 19 14 27 12 14 100 179 101 191 1 3 10 26 22
52 88 193 155 492 168 742 2 49 7 91 10 94 2 3 0 11 -6 19 -9 10 -8 13 0 13 7
0 9 5 6 10 -4 6 -8 73 -10 148 -2 75 -6 155 -9 177 -3 22 -8 63 -11 90 -3 28
-7 61 -10 75 -3 14 -8 44 -11 68 -4 24 -15 75 -25 115 -11 40 -21 81 -23 92
-2 11 -16 58 -32 105 -16 47 -29 87 -29 90 -1 3 -9 20 -18 37 -10 18 -17 34
-16 35 1 5 -64 143 -70 148 -3 3 -17 25 -30 50 -47 88 -128 194 -226 295 -138
142 -243 221 -415 312 -62 32 -232 106 -250 108 -3 1 -43 13 -90 27 -79 25
-108 32 -185 45 -16 2 -37 7 -45 10 -8 3 -28 7 -45 8 -16 2 -30 4 -30 4 0 1
-20 4 -45 7 -24 2 -60 7 -80 10 -38 6 -466 15 -471 10z m321 -489 c55 -5 75
-9 160 -29 122 -28 370 -135 370 -159 0 -5 4 -8 8 -6 10 3 82 -45 82 -55 0 -5
5 -8 12 -8 18 0 210 -199 253 -263 78 -114 138 -228 185 -347 24 -61 71 -215
75 -245 1 -11 5 -31 8 -45 4 -14 9 -41 12 -60 2 -19 7 -45 9 -57 7 -34 19
-221 19 -293 -1 -70 -19 -325 -23 -325 -1 0 -4 -13 -6 -30 -14 -86 -64 -270
-91 -335 -3 -8 -7 -17 -8 -20 -19 -55 -110 -237 -126 -250 -3 -3 -12 -16 -19
-30 -58 -111 -279 -332 -390 -390 -14 -7 -27 -16 -30 -20 -5 -6 -58 -32 -157
-76 -45 -20 -157 -54 -227 -69 -121 -26 -400 -27 -511 -1 -5 2 -28 6 -50 10
-112 22 -292 101 -414 184 -89 60 -238 200 -284 268 -15 22 -35 49 -45 60 -10
10 -21 26 -25 34 -4 8 -18 33 -32 55 -23 38 -86 163 -106 213 -5 12 -13 32
-19 45 -17 39 -77 270 -85 327 -4 30 -9 64 -12 75 -21 104 -21 446 1 565 3 14
7 43 11 64 3 21 8 48 11 60 3 12 6 32 8 46 2 14 6 32 9 40 3 8 15 48 27 88 11
40 26 85 32 100 6 15 12 32 13 38 6 25 109 224 117 224 4 0 8 6 8 14 0 15 83
134 108 154 9 6 13 12 9 12 -10 0 132 141 178 176 65 50 137 98 180 119 22 11
42 23 43 28 2 4 9 7 17 7 7 0 37 11 67 24 47 21 154 52 240 70 15 4 60 9 100
12 40 4 74 7 75 8 4 3 156 -2 213 -7z"/>
<path d="M25959 21516 c-2 -2 -33 -6 -69 -10 -64 -6 -113 -13 -157 -22 -91
-17 -106 -21 -173 -38 -30 -7 -67 -19 -82 -25 -16 -6 -28 -8 -28 -6 0 3 -11
-2 -25 -11 -14 -9 -25 -13 -25 -9 0 4 -6 3 -12 -3 -7 -6 -15 -10 -18 -10 -33
-1 -346 -162 -370 -191 -3 -3 -23 -18 -45 -33 -64 -44 -167 -132 -230 -198
-62 -64 -130 -143 -155 -180 -8 -12 -20 -28 -26 -34 -51 -54 -234 -396 -234
-438 0 -8 -4 -18 -9 -23 -7 -9 -30 -68 -37 -100 -2 -5 -12 -41 -23 -80 -33
-112 -64 -268 -78 -400 -8 -74 -7 -511 1 -580 3 -27 8 -70 10 -95 3 -25 5 -45
6 -45 2 0 7 -24 14 -72 5 -33 35 -166 52 -228 3 -11 7 -27 9 -35 2 -8 4 -16 5
-17 2 -2 3 -6 4 -10 1 -8 11 -35 43 -118 19 -49 124 -266 135 -280 5 -5 31
-43 59 -84 68 -98 71 -101 174 -206 103 -104 185 -175 202 -175 6 0 13 -4 15
-9 4 -12 148 -103 148 -93 0 4 4 2 8 -4 16 -24 293 -142 372 -159 8 -2 52 -12
96 -24 45 -11 97 -23 115 -26 19 -2 45 -7 59 -9 160 -33 641 -40 785 -12 11 2
47 7 80 11 32 4 68 9 80 11 11 2 36 7 55 10 19 3 37 7 40 9 3 2 25 6 50 10 25
4 49 9 54 12 5 4 19 7 30 9 23 3 165 46 209 63 15 6 31 10 35 9 4 -1 22 6 39
15 18 10 34 17 35 16 6 -1 64 22 90 36 15 9 29 16 30 15 2 0 26 9 55 22 51 21
74 50 76 96 1 9 -30 78 -68 152 -38 74 -70 141 -71 149 -2 8 -7 17 -11 20 -5
3 -19 27 -31 54 -21 44 -42 62 -42 35 0 -6 -3 -9 -6 -5 -4 3 -24 -3 -45 -14
-22 -11 -39 -16 -39 -13 0 4 -9 -1 -21 -12 -12 -10 -23 -18 -25 -16 -2 1 -5 2
-6 1 -2 0 -10 -2 -18 -4 -8 -3 -59 -20 -112 -39 -54 -20 -98 -33 -98 -30 0 2
-9 0 -21 -6 -11 -7 -30 -13 -42 -16 -12 -2 -31 -6 -42 -9 -95 -23 -204 -44
-315 -60 -19 -3 -212 -15 -275 -17 -21 0 -187 13 -208 18 -12 2 -38 7 -57 10
-19 3 -66 15 -105 27 -38 11 -72 21 -75 21 -41 6 -227 99 -300 150 -107 75
-262 230 -304 305 -5 9 -12 18 -15 21 -41 35 -176 331 -196 430 -2 8 -4 15 -5
15 -1 0 -4 16 -7 35 -2 19 -8 37 -11 40 -4 3 -7 14 -8 25 -1 25 -14 105 -19
125 -7 27 -17 193 -16 290 0 110 7 199 21 290 6 36 13 79 15 95 2 17 4 30 5
30 1 0 4 13 6 30 3 16 9 35 15 41 5 6 7 13 4 16 -9 8 64 208 109 298 41 82
108 192 158 255 89 115 305 292 406 334 18 7 32 17 32 22 0 5 9 9 20 9 11 0
28 4 38 10 21 12 73 33 87 35 6 1 23 7 38 13 16 7 39 12 53 12 13 0 24 4 24 9
0 5 8 8 17 7 10 -2 33 1 53 5 95 23 235 27 420 15 123 -8 163 -12 195 -19 11
-3 40 -8 65 -12 25 -4 53 -9 63 -11 51 -11 60 -14 77 -19 10 -3 28 -8 41 -10
19 -4 117 -30 144 -39 6 -2 13 -4 17 -5 4 -1 37 -13 72 -25 l65 -24 13 22 c8
11 33 64 57 116 24 52 49 105 57 117 8 12 14 27 14 32 0 6 14 34 31 63 17 29
31 54 30 56 -1 1 1 12 4 25 9 34 -21 96 -53 108 -27 11 -243 77 -272 84 -52
11 -179 37 -202 41 -70 11 -97 14 -148 19 -30 3 -68 8 -85 10 -34 6 -561 15
-566 11z"/>
<path d="M8378 21484 c-4 -3 -89 -8 -190 -10 -101 -3 -228 -6 -283 -9 -343
-14 -492 -21 -506 -24 -3 -1 -6 -890 -6 -1976 0 -1876 1 -1975 18 -1980 9 -3
68 -8 131 -11 62 -3 151 -7 198 -9 512 -24 1120 -25 1246 -1 10 2 42 7 69 10
106 14 304 60 370 86 17 6 30 11 30 10 0 -4 134 46 190 71 28 12 52 23 55 24
19 6 46 19 50 24 3 3 29 17 57 31 29 14 53 28 53 33 0 4 7 7 15 7 8 0 15 5 15
12 0 6 3 9 6 5 8 -7 141 87 229 163 52 44 175 171 206 210 13 17 36 46 51 63
15 18 28 35 28 39 0 4 6 13 13 20 22 23 65 94 122 203 81 154 157 383 180 540
2 11 4 20 5 20 1 0 3 11 5 25 2 14 6 41 9 60 25 157 26 556 1 725 -3 22 -8 54
-10 70 -2 17 -4 30 -5 30 -1 0 -3 14 -6 30 -5 42 -12 80 -14 80 -2 0 -6 22
-14 67 -2 14 -9 41 -15 60 -6 18 -23 71 -37 118 -15 47 -44 122 -65 166 -22
45 -39 84 -39 88 0 11 -102 169 -152 236 -72 95 -213 237 -278 280 -12 8 -28
20 -34 25 -11 10 -58 41 -131 87 -109 67 -451 205 -525 211 -11 1 -20 5 -20
10 0 4 -4 6 -8 3 -4 -2 -37 2 -73 9 -112 24 -123 26 -164 30 -23 2 -54 6 -70
9 -44 9 -149 17 -246 20 -47 2 -91 6 -97 10 -6 3 -13 2 -17 -4 -4 -6 -11 -7
-18 -3 -9 6 -98 7 -132 1 -6 -1 -23 2 -39 6 -18 4 -25 3 -21 -4 4 -7 -2 -7
-17 -1 -15 5 -31 5 -41 0 -11 -7 -24 -6 -37 1 -15 8 -20 8 -20 -2 0 -10 -2
-10 -8 0 -5 7 -11 10 -14 6z m429 -489 c46 -3 91 -8 100 -9 10 -2 38 -7 63
-12 25 -4 47 -8 50 -9 3 -1 22 -5 42 -9 34 -7 138 -43 228 -77 19 -8 38 -18
41 -22 3 -5 12 -9 20 -10 22 -4 168 -95 224 -140 69 -56 196 -188 230 -239 16
-24 37 -52 46 -63 10 -11 17 -22 17 -25 -1 -3 10 -23 24 -45 20 -32 64 -120
73 -145 1 -3 6 -16 12 -30 6 -14 21 -56 33 -95 13 -38 25 -77 28 -85 3 -8 6
-21 8 -29 1 -7 7 -34 13 -60 6 -25 13 -59 16 -76 3 -16 7 -39 9 -50 17 -89 27
-383 14 -402 -5 -6 -5 -14 2 -18 6 -3 8 -10 5 -15 -3 -5 -8 -35 -10 -67 -6
-65 -35 -244 -42 -256 -2 -4 -6 -19 -9 -33 -8 -42 -53 -175 -78 -229 -13 -27
-32 -69 -42 -92 -10 -24 -21 -43 -26 -43 -4 0 -8 -5 -8 -11 0 -28 -122 -191
-205 -274 -85 -86 -207 -180 -285 -220 -103 -52 -133 -65 -213 -94 -48 -17
-99 -33 -112 -36 -14 -3 -37 -8 -52 -11 -16 -3 -46 -9 -68 -13 -22 -5 -47 -9
-55 -10 -8 0 -40 -3 -70 -7 -106 -13 -622 -6 -750 11 -14 2 -35 4 -47 4 l-21
1 0 1510 1 1510 21 1 c11 0 29 2 39 4 42 8 160 17 281 21 71 2 130 5 132 6 4
5 238 0 321 -7z"/>
<path d="M29437 21464 c-1 -1 -45 -5 -97 -9 -142 -11 -150 -12 -215 -19 -33
-3 -87 -8 -120 -11 -32 -3 -64 -11 -70 -17 -6 -7 -22 -44 -35 -83 -13 -38 -27
-76 -33 -82 -5 -7 -7 -13 -4 -13 3 0 0 -12 -8 -27 -8 -15 -12 -30 -9 -35 3 -4
0 -8 -7 -8 -7 0 -9 -3 -6 -6 3 -4 2 -15 -4 -26 -12 -22 -68 -175 -74 -201 -2
-9 -7 -23 -12 -30 -4 -6 -8 -14 -9 -17 -1 -8 -15 -43 -26 -70 -6 -14 -12 -29
-13 -35 -1 -5 -4 -17 -8 -25 -9 -23 -88 -234 -91 -245 -2 -5 -6 -19 -10 -30
-5 -11 -24 -63 -43 -115 -19 -52 -40 -108 -47 -125 -6 -16 -11 -32 -11 -35 -1
-3 -9 -22 -18 -44 -9 -21 -17 -44 -17 -50 -1 -6 -9 -29 -20 -51 -10 -22 -16
-43 -14 -47 3 -5 0 -8 -7 -8 -7 0 -10 -3 -7 -6 3 -3 -9 -43 -28 -89 -19 -47
-34 -92 -34 -100 0 -8 -4 -15 -8 -15 -5 0 -9 -6 -9 -12 -1 -7 -15 -51 -33 -98
-17 -47 -34 -94 -37 -105 -4 -11 -12 -29 -20 -41 -7 -11 -10 -24 -7 -27 4 -4
2 -12 -3 -19 -6 -7 -19 -38 -29 -68 -10 -30 -21 -57 -24 -60 -3 -3 -6 -12 -8
-20 -2 -8 -23 -69 -48 -135 -25 -66 -47 -124 -48 -130 -2 -5 -6 -19 -11 -30
-19 -51 -72 -191 -159 -425 -52 -140 -100 -268 -107 -285 -6 -16 -13 -37 -14
-45 -2 -13 -17 -53 -50 -135 -4 -11 -9 -24 -11 -30 -2 -11 -61 -168 -74 -200
-4 -11 -18 -47 -30 -80 -12 -33 -25 -67 -30 -75 -4 -9 -11 -30 -14 -48 -4 -17
-12 -34 -17 -37 -5 -4 -9 -12 -9 -20 0 -8 -5 -26 -12 -42 -19 -48 -19 -70 2
-105 l20 -34 97 1 c54 0 106 -3 116 -7 9 -5 17 -5 17 -1 0 5 76 8 169 7 l168
-1 31 91 c17 50 54 159 82 241 28 83 54 159 59 170 8 16 51 143 56 165 1 3 4
12 7 20 20 55 40 112 42 123 2 6 8 25 14 40 7 16 12 33 12 39 0 5 6 24 14 41
8 18 22 56 32 85 10 28 20 52 23 53 32 5 1464 2 1468 -3 2 -5 6 -16 8 -25 2
-10 22 -68 44 -130 22 -61 37 -114 34 -117 -4 -3 -2 -6 4 -6 6 0 14 -12 18
-27 6 -25 78 -237 92 -273 4 -8 7 -18 8 -22 2 -5 4 -10 5 -13 1 -3 4 -9 5 -15
1 -5 3 -11 5 -12 1 -2 3 -10 5 -18 2 -8 20 -60 40 -115 20 -55 37 -106 38
-112 0 -7 3 -13 7 -13 4 0 7 -6 7 -13 0 -24 56 -168 62 -160 7 10 452 10 469
-1 7 -4 12 -3 12 1 0 5 26 8 58 7 66 -1 82 3 82 21 0 7 7 18 15 25 16 13 16
45 1 85 -5 11 -21 55 -37 98 -72 192 -91 243 -99 262 -16 40 -35 90 -35 95 -1
3 -9 22 -18 44 -9 21 -17 42 -17 47 0 5 -4 17 -10 27 -9 16 -68 173 -97 257
-7 22 -18 49 -23 60 -19 40 -93 240 -93 253 0 6 -4 12 -9 12 -4 0 -8 8 -8 18
0 10 -3 22 -7 26 -4 4 -8 13 -8 19 -1 7 -6 23 -12 37 -7 14 -53 135 -103 270
-122 325 -141 374 -180 475 -5 11 -17 45 -28 75 -11 30 -39 105 -62 165 -23
61 -51 135 -62 165 -11 30 -24 64 -29 75 -5 11 -22 58 -39 105 -17 47 -34 94
-39 105 -5 11 -19 47 -31 80 -12 33 -26 69 -30 80 -17 42 -59 154 -94 250 -20
55 -41 108 -46 117 -6 10 -10 22 -10 27 0 5 -8 26 -17 47 -9 22 -18 44 -19 49
-1 6 -35 96 -75 200 -39 105 -82 217 -94 250 l-22 60 -42 0 c-23 1 -43 0 -44
-1z m-170 -910 c13 -38 28 -82 33 -99 4 -16 18 -57 31 -90 13 -33 24 -64 25
-70 1 -5 14 -44 29 -85 62 -173 126 -356 130 -370 4 -16 33 -103 46 -135 15
-41 22 -60 25 -70 1 -5 10 -32 20 -60 9 -27 19 -57 22 -65 3 -8 6 -17 7 -20 2
-5 6 -16 21 -55 4 -11 8 -22 9 -25 5 -20 49 -147 54 -155 3 -5 6 -16 7 -23 2
-8 6 -21 10 -30 4 -9 8 -21 10 -27 1 -5 14 -42 27 -81 l25 -71 -578 0 -578 0
15 46 c8 25 17 53 20 61 17 46 262 768 304 895 27 83 54 159 59 170 5 11 18
52 31 90 12 39 26 75 31 82 5 7 7 17 4 22 -4 5 -2 12 4 16 6 4 8 11 5 16 -4 5
-1 9 6 9 7 0 10 3 7 6 -9 8 58 195 73 205 21 12 38 -10 66 -87z"/>
<path d="M11470 21410 c-4 -271 -4 -3920 0 -3922 3 0 104 -2 225 -3 121 0 226
-4 233 -9 7 -4 12 -3 12 1 0 5 33 8 73 8 l72 0 0 1978 1 1977 -31 1 c-144 4
-244 3 -263 -3 -13 -5 -21 -5 -19 0 3 4 -64 7 -149 7 l-154 0 0 -35z"/>
<path d="M16981 21435 c-5 -5 -8 -896 -7 -1980 l1 -1970 190 -1 c105 0 196 -3
203 -8 6 -4 12 -4 12 1 0 10 451 9 468 -1 7 -4 12 -4 12 1 0 7 408 10 435 3 6
-1 12 -1 15 0 15 6 598 5 617 -2 12 -4 24 -4 27 0 6 9 319 8 334 -2 7 -4 12
-3 12 2 0 4 18 8 40 7 22 -1 40 1 41 4 0 3 2 18 5 34 2 15 6 39 8 55 3 15 5
27 6 27 2 0 7 25 14 72 3 21 8 50 11 66 12 63 16 84 21 117 3 19 7 40 9 46 2
7 -11 27 -28 46 l-32 33 -902 0 -903 -1 0 623 c0 586 1 623 18 624 9 0 294 1
634 2 339 1 619 4 621 7 4 4 12 39 22 100 4 26 16 92 30 165 8 39 16 87 19
107 2 21 7 42 11 48 3 5 1 10 -4 10 -6 0 -11 6 -11 13 0 8 -9 22 -21 33 -20
18 -46 19 -668 19 l-646 0 -2 602 -2 603 142 -1 c78 0 147 0 152 1 6 1 12 1
15 0 17 -6 52 -5 56 2 3 4 10 5 16 2 9 -6 129 -9 153 -4 6 1 12 2 15 1 8 -3
194 -4 205 -1 6 1 12 1 15 0 15 -6 73 -4 77 3 2 4 9 4 15 1 9 -6 129 -9 153
-4 6 1 12 2 15 1 8 -3 194 -4 205 -1 6 1 12 1 15 0 15 -6 73 -4 77 3 2 4 9 4
15 1 9 -6 129 -9 153 -4 6 1 15 2 20 1 23 -4 198 -2 202 3 2 2 6 12 8 23 2 10
4 18 5 18 1 0 3 9 5 20 1 11 12 74 24 140 12 66 24 129 26 140 1 11 6 36 9 55
5 29 2 41 -22 69 l-28 34 -339 0 c-187 -1 -344 -2 -350 -3 -5 -1 -12 -1 -15 0
-18 7 -267 3 -263 -4 4 -5 0 -6 -7 -1 -11 7 -648 12 -675 5 -5 -1 -14 -1 -20
0 -35 7 -262 3 -257 -4 3 -5 -1 -6 -8 -1 -19 12 -410 12 -419 0z"/>
<path d="M30750 21410 c-5 -19 -12 -48 -14 -65 -3 -16 -8 -41 -11 -55 -8 -38
-17 -83 -21 -105 -2 -11 -11 -56 -20 -101 l-17 -80 29 -29 c24 -25 40 -31 92
-35 35 -3 66 -2 68 2 3 5 14 3 25 -2 10 -6 19 -7 19 -3 0 4 34 6 76 3 42 -3
78 -2 81 2 2 5 13 3 24 -2 14 -8 19 -7 19 1 0 9 3 9 14 0 10 -8 16 -9 21 -1 4
7 12 7 26 0 10 -6 19 -7 19 -3 0 4 34 6 76 3 42 -3 78 -2 81 2 2 5 13 3 24 -2
10 -6 19 -7 19 -3 0 4 34 6 76 3 42 -3 78 -2 81 2 2 5 13 3 24 -2 14 -8 19 -7
19 1 0 9 3 9 14 0 10 -8 16 -9 21 -1 4 7 12 7 26 0 10 -6 19 -7 19 -3 0 4 34
6 76 3 42 -3 78 -1 81 3 3 4 10 3 17 -2 7 -6 15 -9 18 -6 2 3 23 6 46 8 39 3
42 2 43 -22 0 -14 1 -793 2 -1731 l2 -1705 145 -1 c80 0 151 -4 158 -8 7 -4
12 -3 12 1 0 11 252 9 270 -2 9 -6 11 -4 5 5 -6 10 -4 12 7 7 12 -4 17 3 20
29 2 19 2 34 -2 34 -7 0 -5 54 4 68 3 6 2 13 -3 17 -6 3 -7 13 -4 22 9 22 8
66 0 80 -4 7 -3 14 3 18 6 4 7 12 0 24 -6 12 -5 22 1 28 7 7 7 13 1 17 -7 4
-7 17 -2 35 5 17 4 33 -2 39 -6 6 -6 12 1 16 8 5 8 13 1 26 -7 13 -7 21 0 25
8 5 8 11 0 20 -8 10 -8 19 0 34 8 15 8 21 0 21 -6 0 -8 5 -5 11 10 15 12 79 3
79 -3 0 -3 14 2 30 5 17 6 30 2 30 -9 0 -8 53 2 68 3 6 2 13 -3 17 -6 3 -7 13
-4 22 9 22 8 66 0 80 -4 7 -3 14 3 18 7 4 7 12 0 25 -7 13 -7 21 0 25 8 5 8
11 0 20 -8 10 -8 19 0 34 8 15 8 21 0 21 -6 0 -8 5 -5 11 10 15 12 79 3 79 -3
0 -3 14 2 30 5 17 6 30 2 30 -9 0 -8 53 2 68 3 6 2 13 -3 17 -6 3 -7 13 -4 22
9 22 8 66 0 80 -4 7 -3 14 3 18 7 4 7 12 0 25 -7 13 -7 21 0 25 8 5 8 11 0 20
-8 10 -8 19 0 34 8 15 8 21 0 21 -6 0 -8 5 -5 11 10 15 12 79 3 79 -3 0 -3 14
2 30 5 17 6 30 2 30 -9 0 -8 53 2 68 3 6 2 13 -3 17 -6 3 -7 13 -4 22 9 22 8
66 0 80 -4 7 -3 14 3 18 7 4 7 12 0 25 -7 13 -7 21 0 25 8 5 8 11 0 20 -8 10
-8 19 0 34 8 15 8 21 0 21 -6 0 -8 5 -5 11 10 15 12 79 3 79 -3 0 -3 14 2 30
5 17 6 30 2 30 -9 0 -8 53 2 68 3 6 2 13 -4 17 -7 4 -7 12 0 26 8 13 7 19 0
19 -8 0 -8 6 0 20 8 14 8 20 0 20 -6 0 -8 5 -5 11 10 15 12 79 3 79 -3 0 -3
14 2 30 5 17 6 30 2 30 -9 0 -8 53 2 68 3 6 2 13 -3 17 -6 3 -7 13 -4 22 9 22
8 66 0 80 -4 7 -3 14 3 18 7 4 7 12 0 25 -7 13 -7 21 0 25 8 5 8 11 0 20 -8
10 -8 19 0 34 8 15 8 21 0 21 -6 0 -8 5 -5 11 10 15 12 79 3 79 -3 0 -3 14 2
30 5 17 6 30 2 30 -9 0 -8 53 2 68 3 6 2 13 -3 17 -6 3 -7 13 -4 22 9 22 8 66
0 80 -4 7 -3 14 3 18 7 4 7 12 0 25 -7 13 -7 21 0 25 8 5 8 11 0 20 -8 10 -8
19 0 34 8 15 8 21 0 21 -6 0 -8 5 -5 11 10 15 12 79 3 79 -4 0 -3 11 2 25 6
16 6 26 -1 31 -6 4 -4 13 7 25 12 14 21 16 35 9 10 -6 20 -7 23 -2 2 4 37 5
76 2 39 -3 74 -2 76 2 3 5 14 3 25 -2 10 -6 19 -7 19 -3 0 4 34 6 76 3 42 -3
78 -2 81 2 2 5 13 3 24 -2 14 -8 19 -7 19 1 0 9 3 9 14 0 10 -8 16 -9 21 -1 4
7 12 7 26 0 10 -6 19 -7 19 -3 0 4 34 6 76 3 42 -3 78 -2 81 2 2 5 13 3 24 -2
10 -6 19 -7 19 -3 0 4 34 6 76 3 42 -3 78 -2 81 2 2 5 13 3 24 -2 14 -8 19 -7
19 1 0 9 3 9 14 0 10 -8 16 -9 21 -1 4 7 12 7 26 0 12 -7 19 -7 19 -1 0 10 32
7 50 -4 6 -3 10 -1 10 5 0 6 5 8 12 4 16 -10 90 -5 102 6 7 7 28 102 40 185 2
11 6 34 9 50 4 17 9 46 12 65 4 19 10 54 16 78 10 47 4 66 -33 96 -19 17 -39
20 -125 20 -57 1 -103 -3 -103 -8 0 -5 -5 -5 -12 0 -7 5 -164 8 -348 7 -184
-2 -342 -3 -350 -3 -8 0 -247 1 -532 3 -284 1 -514 -1 -511 -5 2 -5 -6 -5 -19
0 -17 5 -646 7 -858 2 -8 0 -52 1 -98 2 l-82 3 -10 -35z"/>
<path d="M2477 21424 c-1 -1 -51 -5 -112 -8 -60 -4 -123 -9 -140 -10 -100 -12
-143 -18 -170 -23 -16 -3 -41 -7 -55 -8 -14 -2 -25 -4 -25 -5 0 -1 -9 -3 -20
-4 -11 -2 -33 -6 -50 -10 -16 -3 -39 -8 -50 -10 -25 -5 -151 -39 -225 -61 -30
-9 -59 -17 -65 -19 -5 -1 -21 -8 -35 -14 -14 -5 -34 -14 -45 -18 -11 -4 -22
-8 -25 -9 -104 -39 -282 -127 -355 -175 -16 -11 -38 -23 -47 -26 -10 -4 -18
-10 -18 -15 0 -5 -5 -9 -11 -9 -9 0 -121 -80 -189 -135 -115 -95 -331 -341
-380 -435 -7 -14 -16 -27 -19 -30 -14 -11 -111 -219 -134 -290 -27 -80 -52
-173 -62 -230 -3 -19 -8 -48 -11 -65 -14 -73 -21 -276 -10 -293 3 -6 2 -13 -4
-17 -6 -4 -8 -11 -5 -16 4 -5 8 -33 10 -61 13 -152 35 -259 82 -397 32 -95 84
-216 116 -266 92 -148 141 -210 248 -315 150 -149 281 -242 493 -351 61 -32
112 -63 112 -71 1 -7 3 -15 4 -18 12 -32 6 -43 -33 -60 -23 -10 -45 -19 -49
-20 -11 -1 -232 -113 -238 -119 -3 -3 -21 -15 -40 -25 -42 -22 -195 -130 -230
-162 -140 -126 -217 -205 -304 -315 -34 -43 -124 -183 -142 -221 -10 -21 -22
-38 -26 -38 -5 0 -6 -4 -3 -10 3 -5 1 -10 -4 -10 -6 0 -11 -9 -11 -19 0 -11
-7 -27 -16 -35 -8 -9 -13 -16 -10 -16 4 0 -2 -17 -13 -37 -21 -42 -88 -234
-95 -273 -2 -14 -5 -25 -6 -25 -3 0 -12 -41 -13 -62 0 -13 -4 -23 -7 -23 -3 0
-6 -10 -6 -22 -1 -13 -4 -39 -8 -58 -21 -106 -29 -486 -13 -590 4 -25 9 -63
13 -85 7 -53 12 -80 14 -80 1 0 3 -11 4 -25 2 -14 11 -52 20 -85 10 -33 20
-67 21 -75 12 -57 84 -221 120 -275 11 -16 19 -31 18 -32 -4 -5 32 -63 40 -63
4 0 7 -6 7 -13 0 -7 8 -22 18 -33 10 -10 29 -35 42 -54 25 -35 31 -43 106
-122 42 -44 130 -121 168 -147 12 -8 23 -17 26 -20 5 -6 65 -45 110 -73 14 -8
29 -15 34 -16 5 0 12 -5 15 -10 8 -12 202 -105 256 -123 22 -7 45 -16 50 -20
6 -5 22 -10 35 -12 14 -3 39 -11 55 -18 17 -6 39 -14 49 -16 11 -2 47 -11 80
-19 34 -9 70 -18 81 -20 46 -10 132 -27 155 -30 14 -2 39 -5 55 -9 191 -34
676 -40 920 -11 17 2 62 7 100 11 39 4 81 9 95 10 14 2 45 6 70 9 25 2 63 7
85 11 22 3 58 8 80 11 22 4 51 8 65 11 14 2 39 6 55 8 59 7 150 22 150 25 0 1
21 3 48 6 26 2 57 8 70 12 12 4 40 8 62 7 l39 0 0 -1005 0 -1005 26 -22 c14
-13 28 -23 33 -23 4 0 7 -7 7 -15 0 -8 6 -15 13 -15 6 0 36 -23 65 -50 57 -55
51 -54 177 -30 28 6 66 12 85 15 19 2 51 7 70 10 146 25 382 65 414 70 21 3
48 7 60 10 25 5 91 16 126 20 14 2 26 4 28 5 1 1 10 3 20 4 24 3 109 16 135
22 12 3 38 7 57 10 19 2 46 6 60 9 14 3 35 7 48 10 56 10 62 15 52 40 -5 14
-5 25 0 27 5 2 6 19 1 40 -5 20 -6 39 -4 42 5 5 7 248 3 271 -5 25 -4 40 2 45
4 3 3 22 -1 42 -5 20 -6 39 -3 42 7 8 5 354 -3 366 -3 5 -2 10 2 10 7 0 9 54
2 86 -1 5 0 14 1 19 4 23 0 196 -5 205 -3 6 -2 10 2 10 7 0 9 54 2 86 -1 5 0
14 1 19 4 23 0 196 -5 205 -3 6 -2 10 2 10 7 0 9 54 2 86 -1 5 0 14 1 19 4 23
0 196 -5 205 -3 6 -2 10 2 10 7 0 9 54 2 86 -1 5 0 14 1 19 4 23 0 196 -5 205
-3 6 -2 10 2 10 7 0 9 54 2 86 -1 5 0 14 1 19 4 23 0 196 -5 205 -3 6 -2 10 2
10 7 0 9 54 2 86 -1 5 0 14 1 19 4 23 0 196 -5 205 -3 6 -2 10 2 10 7 0 9 54
2 86 -1 5 0 14 1 19 4 23 0 196 -5 205 -3 6 -2 10 2 10 7 0 9 54 2 86 -1 5 0
14 1 19 4 23 0 196 -5 205 -3 6 -2 10 2 10 7 0 9 54 2 86 -1 5 0 14 1 19 4 23
0 196 -5 205 -3 6 -2 10 2 10 7 0 9 54 2 86 -1 5 0 14 1 19 4 23 0 196 -5 205
-3 6 -2 10 2 10 7 0 9 54 2 86 -1 5 0 14 1 19 4 23 0 196 -5 205 -3 6 -2 10 2
10 7 0 9 54 2 86 -1 5 0 14 1 19 1 6 1 58 1 116 l-1 106 563 1 c309 1 567 1
573 1 7 1 15 22 19 49 5 26 10 54 11 62 2 8 6 33 9 55 3 22 8 54 11 70 3 17 7
44 9 60 2 17 6 41 10 55 3 14 8 41 10 60 5 31 10 65 20 135 2 11 4 22 5 25 1
3 2 8 1 13 -1 4 3 27 9 52 5 25 12 62 14 82 2 21 6 49 10 63 3 14 8 42 11 63
3 20 8 54 11 75 12 70 10 77 -39 137 -100 123 -99 122 -156 121 -28 -1 -51 3
-51 7 0 6 -5 6 -12 0 -7 -5 -31 -8 -53 -6 -49 4 -41 4 -147 0 -49 -1 -88 2
-88 6 0 5 -5 5 -12 1 -17 -11 -108 -11 -108 -1 0 4 -5 5 -12 1 -17 -11 -108
-11 -108 -1 0 5 -5 5 -12 1 -16 -10 -89 -11 -95 -1 -2 4 -9 4 -15 1 -16 -10
-118 -11 -118 -1 0 4 -5 5 -12 1 -17 -11 -108 -11 -108 -1 0 4 -5 5 -12 1 -17
-11 -138 -11 -138 0 0 5 -6 5 -12 0 -7 -5 -29 -8 -48 -7 -19 2 -43 3 -52 3
-10 0 -38 0 -63 0 -25 0 -51 0 -57 0 -7 0 -33 0 -58 0 -25 0 -52 0 -60 0 -8 0
-46 -1 -85 -3 -38 -2 -78 1 -87 5 -10 5 -18 5 -18 0 0 -4 -24 -7 -52 -5 -62 4
-61 4 -113 0 -22 -2 -48 1 -57 5 -10 5 -18 5 -18 0 0 -10 -81 -9 -98 2 -7 4
-12 3 -12 -1 0 -10 -102 -9 -118 1 -7 4 -12 3 -12 -1 0 -5 -24 -8 -52 -6 -62
4 -61 4 -113 0 -22 -2 -48 1 -57 5 -10 5 -18 5 -18 0 0 -10 -81 -9 -98 2 -7 4
-12 3 -12 -1 0 -10 -102 -9 -118 1 -7 4 -12 3 -12 -1 0 -5 -24 -8 -52 -6 -29
2 -59 3 -65 3 -16 0 -98 0 -115 0 -7 0 -30 -1 -50 -3 -21 -2 -38 1 -38 6 0 6
-5 6 -12 0 -7 -5 -24 -8 -38 -6 -14 2 -56 5 -95 7 -38 2 -88 7 -110 10 -89 12
-121 17 -150 24 -16 3 -34 7 -40 7 -31 3 -131 29 -140 37 -5 4 -16 8 -25 8
-32 0 -280 107 -280 121 0 4 -11 10 -25 13 -14 4 -25 11 -25 16 0 6 -7 10 -15
10 -8 0 -15 4 -15 8 0 4 -14 16 -31 26 -39 23 -189 175 -189 192 0 6 -6 17
-14 23 -19 16 -81 146 -78 164 1 4 -2 7 -6 7 -4 0 -8 8 -9 18 0 9 -5 35 -9 57
-14 69 -10 301 5 330 3 6 7 19 8 30 5 29 43 128 55 142 6 7 7 13 3 13 -14 0
90 137 141 185 71 67 81 75 94 75 5 0 10 5 10 10 0 6 7 10 15 10 8 0 15 5 15
11 0 5 4 8 9 4 5 -3 12 -1 15 4 7 11 147 66 192 77 114 25 193 31 353 29 97
-2 192 -5 211 -8 19 -3 60 -9 90 -12 30 -3 66 -7 80 -10 14 -2 41 -7 60 -9 37
-6 72 -12 130 -23 55 -10 60 -11 109 -22 25 -6 57 -13 71 -15 14 -3 52 -12 85
-21 33 -9 96 -25 140 -36 44 -11 87 -23 95 -26 8 -3 22 -7 30 -9 12 -2 76 -21
170 -51 8 -2 17 -5 20 -5 3 -1 37 -12 75 -25 105 -35 112 -36 121 -5 12 42 18
59 45 119 10 24 19 48 19 54 0 5 5 20 12 32 7 12 13 31 15 42 2 11 8 24 13 29
6 6 10 16 10 24 0 8 6 28 14 45 34 74 64 156 58 161 -3 3 -1 6 5 6 5 0 10 6
10 13 0 6 17 55 38 107 20 52 51 133 69 180 18 47 37 94 41 105 5 11 9 23 10
28 2 4 4 10 5 15 1 4 2 10 1 15 0 4 4 7 11 7 6 0 9 3 5 6 -3 3 3 25 13 49 l19
44 -40 81 c-21 44 -39 84 -39 88 -1 17 -37 51 -60 56 -14 3 -41 10 -60 16 -19
6 -46 13 -60 16 -14 2 -36 8 -50 13 -31 11 -140 36 -205 48 -16 3 -38 9 -47
14 -10 5 -18 8 -18 5 0 -2 -17 0 -37 5 -21 5 -54 11 -73 14 -19 3 -55 10 -80
15 -116 23 -327 53 -465 65 -16 2 -30 4 -30 5 0 1 -27 3 -60 5 -33 3 -85 6
-115 9 -151 11 -685 26 -693 20z m968 -4924 c0 -439 -3 -801 -6 -805 -4 -3
-15 -7 -26 -9 -23 -5 -101 -26 -123 -34 -8 -2 -22 -6 -30 -7 -8 -2 -58 -12
-110 -24 -53 -11 -113 -23 -134 -27 -21 -3 -48 -8 -60 -10 -22 -4 -68 -10
-151 -20 -78 -9 -465 -14 -465 -6 0 4 -14 7 -31 6 -34 -1 -148 25 -224 51 -75
26 -163 72 -225 118 -76 57 -190 180 -190 206 0 6 -4 11 -8 11 -11 0 -55 109
-77 195 -20 74 -12 252 15 345 12 41 24 85 27 98 3 12 10 22 16 22 6 0 8 3 4
6 -16 17 100 190 186 278 58 58 169 146 186 146 6 0 11 5 11 10 0 6 6 10 14
10 7 0 19 7 26 15 7 8 16 12 21 9 5 -3 9 -1 9 3 0 5 19 17 43 27 88 39 227 94
227 91 0 -2 18 2 40 10 22 8 40 12 40 8 0 -3 7 1 17 8 9 8 18 12 20 11 3 -3
59 4 108 15 11 2 34 6 50 8 17 3 41 7 55 10 14 3 60 7 103 10 43 2 80 5 82 7
2 2 129 4 282 5 l278 1 0 -798z"/>
<path d="M11968 16465 c-3 -3 -341 -17 -450 -19 -38 -1 -68 -3 -68 -6 0 -3
-39 -6 -88 -7 -76 -3 -103 -5 -147 -11 -7 -1 -9 -666 -8 -1974 1 -1085 2
-1975 3 -1978 0 -4 10 -6 23 -7 12 0 87 -4 167 -8 80 -4 170 -8 201 -9 30 -2
60 -6 66 -9 7 -4 14 -3 18 3 4 6 11 7 17 4 15 -9 274 -16 663 -18 355 -1 461
4 590 28 17 3 48 8 70 12 136 21 386 105 478 161 20 13 37 21 37 18 0 -4 57
31 85 52 6 5 30 22 55 38 47 32 49 34 130 110 135 128 248 332 275 500 2 11 4
20 5 20 1 0 3 18 6 40 10 86 5 249 -10 310 -3 11 -10 39 -16 63 -14 58 -59
172 -82 204 -10 14 -18 29 -18 33 0 13 -62 96 -116 155 -59 63 -175 160 -192
160 -6 0 -12 4 -14 9 -7 18 -241 122 -308 136 -8 2 -15 4 -15 5 0 3 -41 11
-57 11 -10 0 -18 5 -18 10 0 6 -5 7 -10 4 -15 -9 -39 12 -36 32 2 10 24 24 57
35 30 10 65 23 79 29 14 7 41 19 60 28 19 9 43 23 54 31 10 8 19 13 20 11 2
-5 93 50 119 72 12 10 37 31 56 45 38 30 98 92 132 137 13 17 27 31 31 33 5 2
8 8 8 13 0 5 12 28 27 52 82 127 125 281 126 447 0 90 -10 227 -18 240 -2 4
-7 21 -10 38 -12 70 -56 173 -112 266 -35 58 -139 158 -213 207 -41 27 -80 54
-87 59 -7 6 -16 10 -21 10 -4 0 -26 9 -49 19 -22 11 -46 21 -54 23 -8 2 -17 7
-20 11 -3 4 -18 10 -34 13 -15 3 -38 10 -49 16 -12 6 -22 11 -23 10 -2 -1 -4
-2 -5 -1 -2 0 -11 2 -20 4 -9 2 -47 11 -83 20 -62 15 -92 20 -175 30 -19 2
-35 4 -35 5 0 1 -42 7 -115 16 -45 6 -877 13 -882 9z m327 -630 c11 0 23 5 27
10 5 7 8 7 8 0 0 -6 46 -11 113 -12 61 -1 123 -4 137 -6 14 -3 41 -8 60 -11
59 -11 133 -37 190 -69 98 -53 193 -172 201 -252 2 -17 7 -35 11 -41 7 -10 4
-190 -4 -229 -3 -11 -12 -37 -21 -59 -10 -21 -17 -40 -17 -43 0 -13 -83 -113
-114 -138 -21 -17 -43 -35 -50 -41 -6 -6 -28 -19 -46 -29 -19 -10 -37 -21 -40
-25 -9 -12 -152 -61 -235 -80 -79 -18 -108 -23 -195 -35 -67 -9 -240 -13 -241
-6 -6 51 -3 119 5 114 8 -5 8 -3 0 8 -11 16 -12 88 0 107 4 7 4 12 -1 12 -10
0 -10 131 0 147 4 6 3 15 -3 18 -8 5 -7 11 1 21 6 8 8 14 3 14 -5 0 -9 36 -9
79 0 51 4 77 10 73 6 -3 6 0 -1 9 -11 16 -12 88 0 107 4 7 4 12 -1 12 -10 0
-10 131 0 147 4 6 3 15 -3 18 -8 5 -7 11 1 21 6 8 7 14 2 14 -8 0 -10 126 -2
134 2 3 42 7 88 10 46 3 86 8 89 11 3 3 8 2 11 -2 3 -5 15 -8 26 -8z m0 -1659
c66 -3 134 -9 150 -12 17 -3 44 -7 60 -9 69 -8 163 -26 195 -37 8 -3 35 -11
60 -19 124 -35 330 -170 330 -215 0 -8 4 -14 9 -14 16 0 60 -108 72 -175 18
-104 -3 -254 -42 -302 -6 -7 -8 -13 -4 -13 7 0 -47 -72 -80 -106 -91 -94 -272
-177 -435 -199 -25 -3 -57 -8 -72 -11 -26 -4 -248 -8 -258 -4 -3 1 -41 3 -85
5 -99 5 -122 10 -122 30 0 8 4 15 9 15 5 0 6 5 2 12 -11 17 -11 148 0 148 5 0
4 6 -1 13 -7 10 -10 190 -3 207 1 3 2 9 0 15 -1 5 -3 31 -5 57 -2 34 1 46 9
41 8 -5 8 -3 0 8 -11 16 -12 88 0 107 4 7 4 12 -1 12 -10 0 -10 131 0 147 4 6
3 15 -3 18 -8 5 -7 11 1 21 6 8 8 14 3 14 -5 0 -9 36 -9 79 0 51 4 77 10 73 6
-3 6 0 -1 9 -5 8 -9 24 -8 37 1 12 2 30 3 40 1 19 -11 19 216 8z"/>
<path d="M6232 16422 c-12 -2 -20 -7 -17 -11 3 -6 6 -176 4 -241 -1 -8 -1 -44
0 -80 0 -36 0 -72 0 -80 -1 -8 -1 -44 0 -80 0 -36 0 -72 0 -80 -1 -8 -1 -40 0
-70 1 -30 2 -144 1 -253 0 -109 2 -202 5 -207 3 -5 1 -11 -4 -15 -7 -3 -7 -15
-1 -30 6 -15 6 -27 -1 -30 -6 -4 -6 -13 0 -23 5 -9 5 -26 1 -38 -5 -12 -7 -24
-5 -26 4 -3 6 -205 4 -268 -1 -8 -1 -44 0 -80 0 -36 0 -72 0 -80 -1 -18 0
-132 2 -210 1 -30 1 -62 1 -70 -4 -88 -1 -403 3 -410 3 -5 1 -11 -4 -15 -7 -3
-7 -15 -1 -30 6 -15 6 -27 -1 -30 -6 -4 -6 -13 0 -23 5 -9 5 -26 1 -38 -5 -12
-7 -24 -5 -26 4 -3 6 -205 4 -268 -1 -8 0 -44 0 -80 1 -36 1 -114 1 -173 0
-60 2 -112 5 -117 3 -5 1 -11 -4 -15 -7 -3 -7 -15 -1 -30 6 -15 6 -27 0 -30
-7 -4 -7 -13 0 -24 5 -10 7 -21 3 -24 -7 -7 -6 -167 1 -174 2 -2 1 -17 -4 -32
-4 -15 -4 -35 1 -44 6 -10 5 -18 -1 -22 -7 -4 -7 -12 0 -24 5 -10 7 -21 3 -24
-7 -8 -6 -185 2 -197 3 -5 2 -11 -3 -13 -4 -3 -5 -31 -2 -63 l5 -59 1287 0
c1138 0 1288 2 1289 15 1 22 8 66 25 155 8 44 17 96 20 115 2 19 9 62 14 95 6
33 12 71 14 85 3 14 5 25 6 25 1 0 3 20 6 45 4 43 1 49 -39 93 -42 44 -46 46
-103 48 -32 1 -63 0 -69 -1 -5 -1 -12 -2 -15 -1 -17 6 -113 5 -117 -2 -2 -4
-9 -5 -14 -1 -9 5 -229 9 -254 4 -5 -1 -12 -2 -15 -1 -8 2 -184 3 -195 1 -5
-1 -14 -1 -20 0 -12 2 -317 2 -330 -1 -6 -1 -12 -1 -15 0 -17 6 -113 5 -117
-2 -2 -4 -9 -5 -14 -1 -9 5 -229 9 -254 4 -5 -1 -14 -2 -20 -1 -5 1 -54 2
-107 2 l-98 0 0 82 c0 45 0 783 0 1640 0 856 -3 1558 -8 1558 -17 3 -829 4
-850 1z"/>
<path d="M9398 16420 c-4 -15 -3 -3950 1 -3951 30 -6 854 -2 858 4 4 6 7 3756
4 3922 l-1 30 -430 0 c-236 0 -431 -2 -432 -5z"/>
<path d="M15250 13390 c-36 -9 -83 -25 -105 -35 -39 -17 -155 -102 -155 -114
0 -3 -10 -17 -23 -31 -39 -43 -87 -153 -101 -232 -17 -94 -10 -214 14 -259 6
-10 8 -19 5 -19 -14 0 58 -112 107 -165 134 -145 394 -188 588 -97 67 32 79
41 155 118 51 52 119 156 113 174 -1 3 5 16 12 30 14 26 16 33 28 115 12 83 5
179 -17 239 -6 14 -8 26 -6 26 2 0 -8 22 -23 49 -27 49 -62 92 -99 122 -26 21
-122 67 -153 73 -14 3 -36 8 -50 11 -59 15 -225 13 -290 -5z"/>
</g>
</svg>
